<svg width="30" height="22" viewBox="0 0 30 22" fill="none" xmlns="http://www.w3.org/2000/svg">
<path d="M29.4895 2.95597L11.0334 21.412C10.8726 21.5733 10.6816 21.7013 10.4713 21.7887C10.261 21.876 10.0355 21.9209 9.80779 21.9209C9.58006 21.9209 9.35458 21.876 9.14426 21.7887C8.93394 21.7013 8.74294 21.5733 8.58219 21.412L0.507659 13.3375C0.346712 13.1766 0.219041 12.9855 0.131936 12.7752C0.0448319 12.5649 2.39831e-09 12.3395 0 12.1119C-2.39831e-09 11.8843 0.044832 11.6589 0.131936 11.4486C0.219041 11.2383 0.346712 11.0473 0.507659 10.8863C0.668607 10.7254 0.85968 10.5977 1.06997 10.5106C1.28026 10.4235 1.50564 10.3787 1.73326 10.3787C1.96087 10.3787 2.18626 10.4235 2.39655 10.5106C2.60684 10.5977 2.79791 10.7254 2.95886 10.8863L9.80923 17.7367L27.0411 0.507659C27.3662 0.18261 27.807 0 28.2667 0C28.7264 0 29.1673 0.18261 29.4923 0.507659C29.8174 0.832708 30 1.27357 30 1.73326C30 2.19295 29.8174 2.63381 29.4923 2.95886L29.4895 2.95597Z" fill="#00A876"/>
</svg>
