<svg width="124" height="18" viewBox="0 0 124 18" fill="none" xmlns="http://www.w3.org/2000/svg">
<path d="M0.291193 14V0.909091H2.66264V12.0121H8.42827V14H0.291193ZM10.3842 14V4.18182H12.6982V14H10.3842ZM11.5476 2.78835C11.1811 2.78835 10.8658 2.6669 10.6016 2.42401C10.3374 2.17685 10.2053 1.88068 10.2053 1.53551C10.2053 1.18608 10.3374 0.889914 10.6016 0.647016C10.8658 0.399857 11.1811 0.276278 11.5476 0.276278C11.9183 0.276278 12.2337 0.399857 12.4936 0.647016C12.7578 0.889914 12.8899 1.18608 12.8899 1.53551C12.8899 1.88068 12.7578 2.17685 12.4936 2.42401C12.2337 2.6669 11.9183 2.78835 11.5476 2.78835ZM22.8375 6.77699L20.7282 7.0071C20.6685 6.79403 20.5641 6.59375 20.415 6.40625C20.2701 6.21875 20.074 6.06747 19.8269 5.95241C19.5797 5.83736 19.2772 5.77983 18.9192 5.77983C18.4377 5.77983 18.0328 5.88423 17.7047 6.09304C17.3809 6.30185 17.2211 6.57244 17.2253 6.90483C17.2211 7.19034 17.3255 7.42259 17.5385 7.60156C17.7559 7.78054 18.1138 7.92756 18.6124 8.04261L20.2871 8.40057C21.2161 8.60085 21.9064 8.91832 22.3581 9.35298C22.8141 9.78764 23.0442 10.3565 23.0485 11.0597C23.0442 11.6776 22.8631 12.223 22.5051 12.696C22.1515 13.1648 21.6593 13.5312 21.0286 13.7955C20.3979 14.0597 19.6735 14.1918 18.8553 14.1918C17.6536 14.1918 16.6863 13.9403 15.9533 13.4375C15.2203 12.9304 14.7836 12.2251 14.6429 11.3217L16.8993 11.1044C17.0016 11.5476 17.2189 11.8821 17.5513 12.108C17.8837 12.3338 18.3162 12.4467 18.8489 12.4467C19.3986 12.4467 19.8397 12.3338 20.1721 12.108C20.5087 11.8821 20.677 11.603 20.677 11.2706C20.677 10.9893 20.5684 10.7571 20.351 10.5739C20.138 10.3906 19.8056 10.25 19.3539 10.152L17.6792 9.80043C16.7374 9.6044 16.0407 9.27415 15.589 8.80966C15.1373 8.34091 14.9135 7.74858 14.9178 7.03267C14.9135 6.42756 15.0776 5.90341 15.41 5.46023C15.7466 5.01278 16.2132 4.66761 16.8098 4.42472C17.4107 4.17756 18.1032 4.05398 18.8873 4.05398C20.0378 4.05398 20.9434 4.29901 21.6039 4.78906C22.2686 5.27912 22.6799 5.94176 22.8375 6.77699ZM29.8592 4.18182V5.97159H24.215V4.18182H29.8592ZM25.6085 1.82955H27.9224V11.0469C27.9224 11.358 27.9693 11.5966 28.063 11.7628C28.161 11.9247 28.2889 12.0355 28.4466 12.0952C28.6042 12.1548 28.7789 12.1847 28.9707 12.1847C29.1156 12.1847 29.2477 12.174 29.367 12.1527C29.4906 12.1314 29.5843 12.1122 29.6483 12.0952L30.0382 13.9041C29.9146 13.9467 29.7377 13.9936 29.5076 14.0447C29.2818 14.0959 29.0048 14.1257 28.6767 14.1342C28.0971 14.1513 27.5751 14.0639 27.1106 13.8722C26.6461 13.6761 26.2775 13.3736 26.0048 12.9645C25.7363 12.5554 25.6042 12.044 25.6085 11.4304V1.82955ZM36.3615 14V0.909091H41.2706C42.2763 0.909091 43.12 1.09659 43.8018 1.47159C44.4879 1.84659 45.0057 2.36222 45.3551 3.01847C45.7088 3.67045 45.8857 4.41193 45.8857 5.2429C45.8857 6.08239 45.7088 6.82812 45.3551 7.48011C45.0014 8.1321 44.4794 8.6456 43.7891 9.0206C43.0987 9.39134 42.2486 9.5767 41.2386 9.5767H37.9851V7.62713H40.919C41.5071 7.62713 41.9886 7.52486 42.3636 7.32031C42.7386 7.11577 43.0156 6.83452 43.1946 6.47656C43.3778 6.11861 43.4695 5.70739 43.4695 5.2429C43.4695 4.77841 43.3778 4.36932 43.1946 4.01562C43.0156 3.66193 42.7365 3.38707 42.3572 3.19105C41.9822 2.99077 41.4986 2.89062 40.9062 2.89062H38.733V14H36.3615ZM47.8432 14V4.18182H50.0868V5.81818H50.1891C50.3681 5.25142 50.6749 4.81463 51.1096 4.50781C51.5485 4.19673 52.0492 4.04119 52.6117 4.04119C52.7395 4.04119 52.8823 4.04758 53.04 4.06037C53.2019 4.06889 53.3361 4.08381 53.4426 4.10511V6.23366C53.3446 6.19957 53.1891 6.16974 52.976 6.14418C52.7672 6.11435 52.5648 6.09943 52.3688 6.09943C51.9469 6.09943 51.5676 6.19105 51.231 6.37429C50.8986 6.55327 50.6365 6.80256 50.4448 7.12216C50.253 7.44176 50.1571 7.81037 50.1571 8.22798V14H47.8432ZM58.8583 14.1918C57.8995 14.1918 57.0685 13.9808 56.3654 13.5589C55.6623 13.1371 55.1168 12.5469 54.729 11.7884C54.3455 11.0298 54.1538 10.1435 54.1538 9.12926C54.1538 8.11506 54.3455 7.22656 54.729 6.46378C55.1168 5.70099 55.6623 5.10866 56.3654 4.68679C57.0685 4.26491 57.8995 4.05398 58.8583 4.05398C59.8171 4.05398 60.6481 4.26491 61.3512 4.68679C62.0543 5.10866 62.5977 5.70099 62.9812 6.46378C63.369 7.22656 63.5629 8.11506 63.5629 9.12926C63.5629 10.1435 63.369 11.0298 62.9812 11.7884C62.5977 12.5469 62.0543 13.1371 61.3512 13.5589C60.6481 13.9808 59.8171 14.1918 58.8583 14.1918ZM58.8711 12.3381C59.391 12.3381 59.8256 12.1953 60.1751 11.9098C60.5245 11.62 60.7844 11.2322 60.9549 10.7464C61.1296 10.2607 61.217 9.71946 61.217 9.12287C61.217 8.52202 61.1296 7.97869 60.9549 7.4929C60.7844 7.00284 60.5245 6.61293 60.1751 6.32315C59.8256 6.03338 59.391 5.88849 58.8711 5.88849C58.3384 5.88849 57.8952 6.03338 57.5415 6.32315C57.1921 6.61293 56.93 7.00284 56.7553 7.4929C56.5849 7.97869 56.4996 8.52202 56.4996 9.12287C56.4996 9.71946 56.5849 10.2607 56.7553 10.7464C56.93 11.2322 57.1921 11.62 57.5415 11.9098C57.8952 12.1953 58.3384 12.3381 58.8711 12.3381ZM65.5268 4.18182H67.8407V14.5625C67.8407 15.2699 67.7065 15.8537 67.438 16.3139C67.1696 16.7741 66.7818 17.1172 66.2747 17.343C65.7676 17.5689 65.1518 17.6818 64.4274 17.6818C64.3422 17.6818 64.2633 17.6797 64.1909 17.6754C64.1184 17.6754 64.0396 17.6733 63.9544 17.669V15.7834C64.0183 15.7876 64.0758 15.7898 64.127 15.7898C64.1781 15.794 64.2314 15.7962 64.2868 15.7962C64.7299 15.7962 65.0474 15.6875 65.2392 15.4702C65.4309 15.2571 65.5268 14.9439 65.5268 14.5305V4.18182ZM66.6774 2.78835C66.3066 2.78835 65.9892 2.6669 65.725 2.42401C65.465 2.17685 65.335 1.88068 65.335 1.53551C65.335 1.18608 65.465 0.889914 65.725 0.647016C65.9892 0.399857 66.3066 0.276278 66.6774 0.276278C67.0439 0.276278 67.3571 0.399857 67.617 0.647016C67.8812 0.889914 68.0133 1.18608 68.0133 1.53551C68.0133 1.88068 67.8812 2.17685 67.617 2.42401C67.3571 2.6669 67.0439 2.78835 66.6774 2.78835ZM74.5668 14.1918C73.5824 14.1918 72.7322 13.9872 72.0163 13.5781C71.3047 13.1648 70.7571 12.581 70.3736 11.8267C69.9901 11.0682 69.7983 10.1754 69.7983 9.14844C69.7983 8.13849 69.9901 7.25213 70.3736 6.48935C70.7614 5.7223 71.3026 5.12571 71.9972 4.69957C72.6918 4.26918 73.5078 4.05398 74.4453 4.05398C75.0504 4.05398 75.6214 4.15199 76.1584 4.34801C76.6996 4.53977 77.1768 4.83807 77.5902 5.2429C78.0078 5.64773 78.3359 6.16335 78.5746 6.78977C78.8132 7.41193 78.9325 8.15341 78.9325 9.0142V9.72372H70.8849V8.16406H76.7145C76.7102 7.72088 76.6143 7.3267 76.4268 6.98153C76.2393 6.6321 75.9773 6.35724 75.6406 6.15696C75.3082 5.95668 74.9205 5.85653 74.4773 5.85653C74.0043 5.85653 73.5888 5.97159 73.2308 6.2017C72.8729 6.42756 72.5938 6.72585 72.3935 7.09659C72.1974 7.46307 72.0973 7.86577 72.093 8.30469V9.66619C72.093 10.2372 72.1974 10.7273 72.4062 11.1364C72.6151 11.5412 72.907 11.8523 73.282 12.0696C73.657 12.2827 74.0959 12.3892 74.5987 12.3892C74.9354 12.3892 75.2401 12.3423 75.5128 12.2486C75.7855 12.1506 76.022 12.0078 76.2223 11.8203C76.4226 11.6328 76.5739 11.4006 76.6761 11.1236L78.8366 11.3665C78.7003 11.9375 78.4403 12.4361 78.0568 12.8622C77.6776 13.2841 77.1918 13.6122 76.5994 13.8466C76.0071 14.0767 75.3295 14.1918 74.5668 14.1918ZM85.1728 14.1918C84.1926 14.1918 83.351 13.9766 82.6479 13.5462C81.949 13.1158 81.41 12.5213 81.0307 11.7628C80.6557 11 80.4682 10.1222 80.4682 9.12926C80.4682 8.1321 80.66 7.25213 81.0435 6.48935C81.427 5.7223 81.9682 5.12571 82.6671 4.69957C83.3702 4.26918 84.2012 4.05398 85.16 4.05398C85.9569 4.05398 86.6621 4.20099 87.2757 4.49503C87.8936 4.7848 88.3858 5.19602 88.7523 5.72869C89.1188 6.2571 89.3276 6.875 89.3787 7.58239H87.1671C87.0776 7.10937 86.8645 6.7152 86.5279 6.39986C86.1955 6.08026 85.7502 5.92045 85.1919 5.92045C84.7189 5.92045 84.3034 6.0483 83.9455 6.30398C83.5875 6.5554 83.3084 6.91761 83.1081 7.39062C82.9121 7.86364 82.8141 8.4304 82.8141 9.09091C82.8141 9.75994 82.9121 10.3352 83.1081 10.8168C83.3042 11.294 83.579 11.6626 83.9327 11.9226C84.2907 12.1783 84.7104 12.3061 85.1919 12.3061C85.5328 12.3061 85.8375 12.2422 86.106 12.1143C86.3787 11.9822 86.6067 11.7926 86.79 11.5455C86.9732 11.2983 87.0989 10.9979 87.1671 10.6442H89.3787C89.3233 11.3388 89.1188 11.9545 88.7651 12.4915C88.4114 13.0241 87.9299 13.4418 87.3205 13.7443C86.7111 14.0426 85.9952 14.1918 85.1728 14.1918ZM96.1815 4.18182V5.97159H90.5373V4.18182H96.1815ZM91.9308 1.82955H94.2447V11.0469C94.2447 11.358 94.2915 11.5966 94.3853 11.7628C94.4833 11.9247 94.6112 12.0355 94.7688 12.0952C94.9265 12.1548 95.1012 12.1847 95.293 12.1847C95.4379 12.1847 95.57 12.174 95.6893 12.1527C95.8129 12.1314 95.9066 12.1122 95.9705 12.0952L96.3604 13.9041C96.2369 13.9467 96.06 13.9936 95.8299 14.0447C95.604 14.0959 95.3271 14.1257 94.9989 14.1342C94.4194 14.1513 93.8974 14.0639 93.4329 13.8722C92.9684 13.6761 92.5998 13.3736 92.3271 12.9645C92.0586 12.5554 91.9265 12.044 91.9308 11.4304V1.82955ZM117.552 14.473L116.235 13.1626L120.179 9.22514H103.643V7.32031H120.179L116.235 3.37642L117.552 2.07244L123.752 8.27273L117.552 14.473Z" fill="white"/>
</svg>
