<svg width="204" height="42" viewBox="0 0 204 42" fill="none" xmlns="http://www.w3.org/2000/svg">
<path d="M4.55 35V-2.38419e-06H11.4L24.15 20.75L19.65 20.7L32.55 -2.38419e-06H39.1V35H31.75V23C31.75 20 31.8167 17.3 31.95 14.9C32.1167 12.5 32.3833 10.1167 32.75 7.75L33.65 10.1L23.4 26H20.1L10.05 10.2L10.9 7.75C11.2667 9.98333 11.5167 12.2833 11.65 14.65C11.8167 16.9833 11.9 19.7667 11.9 23V35H4.55Z" fill="#FF5439"/>
<path d="M80.616 12.6C81.7467 12.6 82.792 12.9093 83.752 13.528C84.712 14.1253 85.48 14.9467 86.056 15.992C86.632 17.0373 86.92 18.2107 86.92 19.512C86.92 20.8133 86.632 21.9973 86.056 23.064C85.48 24.1093 84.712 24.952 83.752 25.592C82.792 26.2107 81.7467 26.52 80.616 26.52H74.44L74.696 26.008V33.368C74.696 33.8373 74.5467 34.232 74.248 34.552C73.9707 34.8507 73.5973 35 73.128 35C72.68 35 72.3067 34.8507 72.008 34.552C71.7307 34.232 71.592 33.8373 71.592 33.368V14.232C71.592 13.7627 71.752 13.3787 72.072 13.08C72.392 12.76 72.776 12.6 73.224 12.6H80.616ZM80.616 23.448C81.1707 23.448 81.672 23.2667 82.12 22.904C82.5893 22.5413 82.9627 22.0613 83.24 21.464C83.5387 20.8667 83.688 20.216 83.688 19.512C83.688 18.808 83.5387 18.168 83.24 17.592C82.9627 17.016 82.5893 16.5573 82.12 16.216C81.672 15.8533 81.1707 15.672 80.616 15.672H74.376L74.696 15.192V23.864L74.408 23.448H80.616ZM92.0588 35C91.5894 35 91.2054 34.8507 90.9068 34.552C90.6081 34.232 90.4588 33.8373 90.4588 33.368V19.8C90.4588 19.3307 90.6081 18.9467 90.9068 18.648C91.2054 18.328 91.5894 18.168 92.0588 18.168C92.5068 18.168 92.8801 18.328 93.1788 18.648C93.4988 18.9467 93.6588 19.3307 93.6588 19.8V23.384L93.3388 22.008C93.5094 21.4107 93.7654 20.856 94.1068 20.344C94.4694 19.832 94.8961 19.384 95.3868 19C95.8774 18.616 96.4214 18.3173 97.0188 18.104C97.6374 17.8907 98.2774 17.784 98.9388 17.784C99.4934 17.784 99.9734 17.9333 100.379 18.232C100.784 18.5307 100.987 18.904 100.987 19.352C100.987 19.928 100.837 20.3547 100.539 20.632C100.24 20.888 99.9094 21.016 99.5468 21.016C99.2268 21.016 98.9174 20.952 98.6188 20.824C98.3201 20.6747 97.9681 20.6 97.5628 20.6C97.1148 20.6 96.6561 20.7173 96.1868 20.952C95.7174 21.1867 95.2908 21.5387 94.9068 22.008C94.5228 22.456 94.2134 22.9893 93.9788 23.608C93.7654 24.2267 93.6588 24.92 93.6588 25.688V33.368C93.6588 33.8373 93.4988 34.232 93.1788 34.552C92.8801 34.8507 92.5068 35 92.0588 35ZM119.243 26.584C119.243 28.2907 118.87 29.8053 118.123 31.128C117.376 32.4293 116.363 33.4533 115.083 34.2C113.803 34.9467 112.363 35.32 110.763 35.32C109.163 35.32 107.723 34.9467 106.443 34.2C105.163 33.4533 104.139 32.4293 103.371 31.128C102.624 29.8053 102.251 28.2907 102.251 26.584C102.251 24.856 102.624 23.3413 103.371 22.04C104.139 20.7173 105.163 19.6827 106.443 18.936C107.723 18.168 109.163 17.784 110.763 17.784C112.363 17.784 113.803 18.168 115.083 18.936C116.363 19.6827 117.376 20.7173 118.123 22.04C118.87 23.3413 119.243 24.856 119.243 26.584ZM116.043 26.584C116.043 25.4107 115.808 24.3973 115.339 23.544C114.87 22.6693 114.23 21.9867 113.419 21.496C112.63 20.984 111.744 20.728 110.763 20.728C109.782 20.728 108.886 20.984 108.075 21.496C107.264 21.9867 106.624 22.6693 106.155 23.544C105.686 24.3973 105.451 25.4107 105.451 26.584C105.451 27.7147 105.686 28.7173 106.155 29.592C106.624 30.4667 107.264 31.1493 108.075 31.64C108.886 32.1307 109.782 32.376 110.763 32.376C111.744 32.376 112.63 32.1307 113.419 31.64C114.23 31.1493 114.87 30.4667 115.339 29.592C115.808 28.7173 116.043 27.7147 116.043 26.584ZM131.345 17.88C132.838 17.88 134.161 18.2533 135.313 19C136.486 19.7467 137.414 20.7707 138.097 22.072C138.78 23.352 139.121 24.8453 139.121 26.552C139.121 28.2587 138.78 29.7733 138.097 31.096C137.414 32.3973 136.497 33.4213 135.345 34.168C134.193 34.9147 132.892 35.288 131.441 35.288C130.63 35.288 129.862 35.16 129.137 34.904C128.412 34.648 127.772 34.3173 127.217 33.912C126.662 33.4853 126.204 33.0373 125.841 32.568C125.5 32.0987 125.286 31.6613 125.201 31.256L126.065 30.84V39.768C126.065 40.2373 125.905 40.6213 125.585 40.92C125.286 41.24 124.913 41.4 124.465 41.4C123.996 41.4 123.612 41.24 123.313 40.92C123.014 40.6213 122.865 40.2373 122.865 39.768V19.736C122.865 19.288 123.014 18.904 123.313 18.584C123.612 18.264 123.996 18.104 124.465 18.104C124.913 18.104 125.286 18.264 125.585 18.584C125.905 18.904 126.065 19.288 126.065 19.736V21.944L125.553 21.656C125.617 21.2507 125.82 20.8347 126.161 20.408C126.502 19.96 126.929 19.544 127.441 19.16C127.974 18.776 128.572 18.4667 129.233 18.232C129.916 17.9973 130.62 17.88 131.345 17.88ZM130.993 20.824C129.969 20.824 129.073 21.08 128.305 21.592C127.558 22.0827 126.972 22.7547 126.545 23.608C126.118 24.4613 125.905 25.4427 125.905 26.552C125.905 27.64 126.118 28.632 126.545 29.528C126.972 30.4027 127.558 31.096 128.305 31.608C129.073 32.0987 129.969 32.344 130.993 32.344C131.996 32.344 132.87 32.0987 133.617 31.608C134.364 31.096 134.95 30.4027 135.377 29.528C135.825 28.632 136.049 27.64 136.049 26.552C136.049 25.464 135.825 24.4933 135.377 23.64C134.95 22.7653 134.364 22.0827 133.617 21.592C132.87 21.08 131.996 20.824 130.993 20.824ZM150.58 35.32C148.809 35.32 147.273 34.9573 145.972 34.232C144.671 33.4853 143.657 32.472 142.932 31.192C142.228 29.8907 141.876 28.408 141.876 26.744C141.876 24.8667 142.249 23.2667 142.996 21.944C143.764 20.6 144.756 19.576 145.972 18.872C147.188 18.1467 148.479 17.784 149.844 17.784C150.889 17.784 151.881 17.9973 152.82 18.424C153.759 18.8293 154.591 19.4053 155.316 20.152C156.063 20.8773 156.649 21.7413 157.076 22.744C157.503 23.7253 157.727 24.8027 157.748 25.976C157.727 26.4027 157.556 26.7547 157.236 27.032C156.916 27.3093 156.543 27.448 156.116 27.448H143.668L142.9 24.728H154.932L154.324 25.304V24.504C154.281 23.7573 154.036 23.1067 153.588 22.552C153.14 21.976 152.585 21.5387 151.924 21.24C151.263 20.92 150.569 20.76 149.844 20.76C149.204 20.76 148.585 20.8667 147.988 21.08C147.412 21.272 146.889 21.592 146.42 22.04C145.972 22.488 145.609 23.0853 145.332 23.832C145.076 24.5573 144.948 25.464 144.948 26.552C144.948 27.7253 145.193 28.7493 145.684 29.624C146.175 30.4987 146.836 31.1813 147.668 31.672C148.5 32.1413 149.417 32.376 150.42 32.376C151.209 32.376 151.86 32.3013 152.372 32.152C152.884 31.9813 153.311 31.7787 153.652 31.544C153.993 31.3093 154.292 31.0853 154.548 30.872C154.868 30.68 155.188 30.584 155.508 30.584C155.892 30.584 156.212 30.7227 156.468 31C156.724 31.256 156.852 31.5653 156.852 31.928C156.852 32.3973 156.617 32.824 156.148 33.208C155.572 33.7627 154.772 34.2533 153.748 34.68C152.745 35.1067 151.689 35.32 150.58 35.32ZM162.965 35C162.496 35 162.112 34.8507 161.813 34.552C161.514 34.232 161.365 33.8373 161.365 33.368V19.8C161.365 19.3307 161.514 18.9467 161.813 18.648C162.112 18.328 162.496 18.168 162.965 18.168C163.413 18.168 163.786 18.328 164.085 18.648C164.405 18.9467 164.565 19.3307 164.565 19.8V23.384L164.245 22.008C164.416 21.4107 164.672 20.856 165.013 20.344C165.376 19.832 165.802 19.384 166.293 19C166.784 18.616 167.328 18.3173 167.925 18.104C168.544 17.8907 169.184 17.784 169.845 17.784C170.4 17.784 170.88 17.9333 171.285 18.232C171.69 18.5307 171.893 18.904 171.893 19.352C171.893 19.928 171.744 20.3547 171.445 20.632C171.146 20.888 170.816 21.016 170.453 21.016C170.133 21.016 169.824 20.952 169.525 20.824C169.226 20.6747 168.874 20.6 168.469 20.6C168.021 20.6 167.562 20.7173 167.093 20.952C166.624 21.1867 166.197 21.5387 165.813 22.008C165.429 22.456 165.12 22.9893 164.885 23.608C164.672 24.2267 164.565 24.92 164.565 25.688V33.368C164.565 33.8373 164.405 34.232 164.085 34.552C163.786 34.8507 163.413 35 162.965 35ZM174.516 18.36H182.036C182.463 18.36 182.815 18.5093 183.092 18.808C183.391 19.0853 183.54 19.4373 183.54 19.864C183.54 20.2693 183.391 20.6107 183.092 20.888C182.815 21.1653 182.463 21.304 182.036 21.304H174.516C174.089 21.304 173.727 21.1653 173.428 20.888C173.151 20.5893 173.012 20.2373 173.012 19.832C173.012 19.4053 173.151 19.0533 173.428 18.776C173.727 18.4987 174.089 18.36 174.516 18.36ZM177.876 14.2C178.345 14.2 178.729 14.36 179.028 14.68C179.327 14.9787 179.476 15.3627 179.476 15.832V30.68C179.476 31.064 179.54 31.3733 179.668 31.608C179.796 31.8427 179.967 32.0027 180.18 32.088C180.415 32.1733 180.649 32.216 180.884 32.216C181.119 32.216 181.321 32.1733 181.492 32.088C181.684 32.0027 181.908 31.96 182.164 31.96C182.42 31.96 182.655 32.0773 182.868 32.312C183.081 32.5467 183.188 32.8667 183.188 33.272C183.188 33.784 182.911 34.2 182.356 34.52C181.801 34.84 181.204 35 180.564 35C180.201 35 179.775 34.968 179.284 34.904C178.793 34.84 178.313 34.68 177.844 34.424C177.396 34.168 177.023 33.7627 176.724 33.208C176.425 32.632 176.276 31.832 176.276 30.808V15.832C176.276 15.3627 176.425 14.9787 176.724 14.68C177.044 14.36 177.428 14.2 177.876 14.2ZM199.596 18.04C200.065 18.04 200.449 18.2 200.748 18.52C201.046 18.8187 201.196 19.2027 201.196 19.672V33.432C201.196 35.3093 200.833 36.8347 200.108 38.008C199.404 39.1813 198.444 40.0347 197.228 40.568C196.033 41.1227 194.678 41.4 193.164 41.4C192.396 41.4 191.628 41.3253 190.86 41.176C190.092 41.048 189.462 40.856 188.972 40.6C188.46 40.3653 188.097 40.0773 187.884 39.736C187.67 39.3947 187.638 39.0213 187.788 38.616C187.937 38.104 188.193 37.752 188.556 37.56C188.918 37.3893 189.292 37.3787 189.676 37.528C190.038 37.6773 190.518 37.8693 191.116 38.104C191.713 38.3387 192.396 38.456 193.164 38.456C194.209 38.456 195.094 38.2853 195.82 37.944C196.545 37.6027 197.089 37.0693 197.452 36.344C197.836 35.6187 198.028 34.68 198.028 33.528V31.32L198.54 32.088C198.198 32.792 197.75 33.3787 197.196 33.848C196.641 34.3173 195.98 34.68 195.212 34.936C194.465 35.192 193.633 35.32 192.716 35.32C191.542 35.32 190.529 35.064 189.676 34.552C188.844 34.0187 188.204 33.2933 187.756 32.376C187.308 31.4373 187.084 30.3707 187.084 29.176V19.672C187.084 19.2027 187.233 18.8187 187.532 18.52C187.83 18.2 188.214 18.04 188.684 18.04C189.132 18.04 189.505 18.2 189.804 18.52C190.124 18.8187 190.284 19.2027 190.284 19.672V28.312C190.284 29.72 190.593 30.7547 191.212 31.416C191.83 32.056 192.748 32.376 193.964 32.376C194.774 32.376 195.478 32.2053 196.076 31.864C196.673 31.5227 197.142 31.0533 197.484 30.456C197.825 29.8373 197.996 29.1227 197.996 28.312V19.672C197.996 19.2027 198.145 18.8187 198.444 18.52C198.764 18.2 199.148 18.04 199.596 18.04Z" fill="#414141"/>
<circle cx="56" cy="24" r="5" fill="#D9D9D9"/>
</svg>
