<svg width="27" height="33" viewBox="0 0 27 33" fill="none" xmlns="http://www.w3.org/2000/svg">
<path d="M5.13906 32.2781L0 27.1375L5.13906 22L6.25312 23.1062L3.00312 26.3875H21.9984L18.7859 23.1062L19.8625 22.0312L25 27.1687L19.8625 32.3062L18.7859 31.2312L21.9984 27.95H2.97187L6.21406 31.2L5.13906 32.2781Z" fill="#414141" fill-opacity="0.5"/>
<path d="M14.72 3.84C15.5733 3.84 16.3333 4.02 17 4.38C17.6667 4.72667 18.1933 5.25333 18.58 5.96C18.9667 6.66667 19.16 7.52667 19.16 8.54V15H17.36V8.8C17.36 7.70667 17.0867 6.87333 16.54 6.3C16.0067 5.71333 15.28 5.42 14.36 5.42C13.4133 5.42 12.66 5.72667 12.1 6.34C11.54 6.94 11.26 7.81333 11.26 8.96V15H9.46V8.8C9.46 7.70667 9.18667 6.87333 8.64 6.3C8.10667 5.71333 7.38 5.42 6.46 5.42C5.51333 5.42 4.76 5.72667 4.2 6.34C3.64 6.94 3.36 7.81333 3.36 8.96V15H1.54V4.04H3.36V5.62C3.72 5.04667 4.2 4.60667 4.8 4.3C5.41333 3.99333 6.08667 3.84 6.82 3.84C7.74 3.84 8.55333 4.04667 9.26 4.46C9.96667 4.87333 10.4933 5.48 10.84 6.28C11.1467 5.50667 11.6533 4.90667 12.36 4.48C13.0667 4.05333 13.8533 3.84 14.72 3.84ZM26.3855 6.78V7.96H21.2455V6.92L23.4255 5.16C23.8655 4.8 24.1988 4.46 24.4255 4.14C24.6655 3.80667 24.7855 3.44667 24.7855 3.06C24.7855 2.7 24.6855 2.42 24.4855 2.22C24.2988 2.02 24.0521 1.92 23.7455 1.92C23.4255 1.92 23.1721 2.01333 22.9855 2.2C22.8121 2.37333 22.7055 2.62 22.6655 2.94H21.2055C21.2321 2.31333 21.4721 1.8 21.9255 1.4C22.3788 0.999999 22.9988 0.799999 23.7855 0.799999C24.5455 0.799999 25.1521 1.01333 25.6055 1.44C26.0721 1.86667 26.3055 2.38667 26.3055 3C26.3055 3.50667 26.1588 3.96 25.8655 4.36C25.5721 4.74667 25.0988 5.18 24.4455 5.66L22.8655 6.78H26.3855Z" fill="#414141" fill-opacity="0.5"/>
</svg>
