<svg width="38" height="20" viewBox="0 0 38 20" fill="none" xmlns="http://www.w3.org/2000/svg">
<path d="M0 20V10.9091C0 10.3709 0.180148 9.79758 0.540445 9.18909C0.900741 8.58061 1.4243 8.12364 2.11111 7.81818V3.63636C2.11111 2.61091 2.51715 1.74849 3.32922 1.04909C4.1413 0.349697 5.14267 0 6.33333 0H15.8333C16.561 0 17.1823 0.129091 17.6974 0.387272C18.2111 0.644242 18.6453 1 19 1.45455C19.3547 1 19.7889 0.644242 20.3026 0.387272C20.8177 0.129091 21.439 0 22.1667 0H31.6667C32.8573 0 33.8587 0.349697 34.6708 1.04909C35.4829 1.74849 35.8889 2.61091 35.8889 3.63636V7.81818C36.5771 8.12364 37.1007 8.58061 37.4596 9.18909C37.8199 9.79758 38 10.3709 38 10.9091V20H35.8889V16.3636H2.11111V20H0ZM20.0556 7.27273H33.7778V3.63636C33.7778 3.12121 33.5751 2.6897 33.1698 2.34182C32.7644 1.99394 32.2634 1.81939 31.6667 1.81818H22.1667C21.5685 1.81818 21.0675 1.99273 20.6636 2.34182C20.2596 2.69091 20.057 3.12242 20.0556 3.63636V7.27273ZM4.22222 7.27273H17.9444V3.63636C17.9444 3.12121 17.7418 2.6897 17.3364 2.34182C16.9311 1.99394 16.4301 1.81939 15.8333 1.81818H6.33333C5.73519 1.81818 5.23415 1.99273 4.83022 2.34182C4.4263 2.69091 4.22363 3.12242 4.22222 3.63636V7.27273ZM2.11111 14.5455H35.8889V10.9091C35.8889 10.3939 35.6862 9.96242 35.2809 9.61455C34.8756 9.26667 34.3745 9.09212 33.7778 9.09091H4.22222C3.62407 9.09091 3.12304 9.26546 2.71911 9.61455C2.31519 9.96364 2.11252 10.3952 2.11111 10.9091V14.5455Z" fill="#414141" fill-opacity="0.5"/>
</svg>
