<svg width="25" height="44" viewBox="0 0 25 44" fill="none" xmlns="http://www.w3.org/2000/svg">
<path d="M5.13906 43.2781L0 38.1375L5.13906 33L6.25312 34.1062L3.00312 37.3875H21.9984L18.7859 34.1062L19.8625 33.0312L25 38.1687L19.8625 43.3062L18.7859 42.2312L21.9984 38.95H2.97187L6.21406 42.2L5.13906 43.2781Z" fill="#414141" fill-opacity="0.5"/>
<path d="M24.4548 11.1836L13.8165 0.545347C13.6436 0.372452 13.4384 0.235303 13.2125 0.141732C12.9866 0.0481608 12.7445 0 12.5 0C12.2555 0 12.0134 0.0481608 11.7875 0.141732C11.5616 0.235303 11.3564 0.372452 11.1835 0.545347L0.545218 11.1836C0.371874 11.3562 0.234441 11.5614 0.14086 11.7873C0.0472791 12.0133 -0.000594599 12.2556 5.57388e-06 12.5001V25.2661C5.57388e-06 25.4777 0.0840667 25.6806 0.233697 25.8303C0.383327 25.9799 0.586269 26.064 0.797878 26.064H9.30851C9.52012 26.064 9.72306 25.9799 9.87269 25.8303C10.0223 25.6806 10.1064 25.4777 10.1064 25.2661V17.5533H14.8936V25.2661C14.8936 25.4777 14.9777 25.6806 15.1273 25.8303C15.2769 25.9799 15.4799 26.064 15.6915 26.064H24.2021C24.4137 26.064 24.6167 25.9799 24.7663 25.8303C24.9159 25.6806 25 25.4777 25 25.2661V12.5001C25.0006 12.2556 24.9527 12.0133 24.8591 11.7873C24.7656 11.5614 24.6281 11.3562 24.4548 11.1836ZM23.4043 24.4682H16.4894V16.7554C16.4894 16.5438 16.4053 16.3409 16.2557 16.1913C16.106 16.0416 15.9031 15.9576 15.6915 15.9576H9.30851C9.0969 15.9576 8.89396 16.0416 8.74433 16.1913C8.5947 16.3409 8.51064 16.5438 8.51064 16.7554V24.4682H1.59575V12.5001C1.59555 12.4651 1.60226 12.4304 1.61549 12.398C1.62873 12.3656 1.64823 12.3362 1.67288 12.3113L12.3112 1.67301C12.3359 1.64808 12.3653 1.62829 12.3977 1.61479C12.4301 1.60129 12.4649 1.59434 12.5 1.59434C12.5351 1.59434 12.5699 1.60129 12.6023 1.61479C12.6347 1.62829 12.6641 1.64808 12.6888 1.67301L23.3271 12.3113C23.3518 12.3362 23.3713 12.3656 23.3845 12.398C23.3977 12.4304 23.4045 12.4651 23.4043 12.5001V24.4682Z" fill="#414141" fill-opacity="0.5"/>
</svg>
