<svg width="28" height="33" viewBox="0 0 28 33" fill="none" xmlns="http://www.w3.org/2000/svg">
<path d="M4.844 26.9127C4.33378 26.9127 3.90756 26.7593 3.56533 26.4525C3.22311 26.1443 3.052 25.7625 3.052 25.3071C3.052 24.8517 3.22389 24.472 3.56767 24.1679C3.91144 23.8639 4.33922 23.7112 4.851 23.7098C5.36278 23.7084 5.78822 23.8618 6.12733 24.17C6.46644 24.4782 6.63755 24.86 6.64067 25.3154C6.64378 25.7708 6.47111 26.1505 6.12267 26.4546C5.77422 26.7586 5.34722 26.9113 4.84167 26.9127M13.9977 26.9127C13.4874 26.9127 13.0612 26.7593 12.719 26.4525C12.3768 26.1456 12.2057 25.7639 12.2057 25.3071C12.2057 24.8503 12.3776 24.4706 12.7213 24.1679C13.0651 23.8653 13.4929 23.7125 14.0047 23.7098C14.5164 23.707 14.9419 23.8604 15.281 24.17C15.6201 24.4796 15.7912 24.8614 15.7943 25.3154C15.7974 25.7694 15.6256 26.1491 15.2787 26.4546C14.9318 26.76 14.5063 26.9127 13.9977 26.9127ZM23.1513 26.9127C22.6411 26.9127 22.2149 26.7593 21.8727 26.4525C21.5304 26.1456 21.3593 25.7639 21.3593 25.3071C21.3593 24.8503 21.532 24.4706 21.8773 24.1679C22.2211 23.8625 22.6481 23.7098 23.1583 23.7098C23.6686 23.7098 24.094 23.8632 24.4347 24.17C24.7753 24.4768 24.9464 24.8586 24.948 25.3154C24.9496 25.7722 24.7777 26.1519 24.4323 26.4546C24.087 26.7572 23.6592 26.9099 23.149 26.9127M0 18.7429V16.6604C0 13.3824 1.23978 10.5564 3.71933 8.18232C6.19889 5.80822 9.23689 4.48511 12.8333 4.21299V0H15.1667V4.21299C18.7631 4.48511 21.8011 5.80822 24.2807 8.18232C26.7602 10.5564 28 13.3824 28 16.6604V18.7429H0ZM2.33333 16.6604H25.6667C25.6667 13.7795 24.5288 11.3242 22.253 9.2944C19.9772 7.26461 17.2262 6.24902 14 6.24763C10.7738 6.24624 8.02278 7.26183 5.747 9.2944C3.47122 11.327 2.33333 13.7823 2.33333 16.6604ZM4.844 33C4.33378 33 3.90756 32.8466 3.56533 32.5398C3.22311 32.2315 3.052 31.8497 3.052 31.3944C3.052 30.939 3.22389 30.5593 3.56767 30.2552C3.91144 29.9512 4.33922 29.7984 4.851 29.797C5.36278 29.7957 5.78822 29.9491 6.12733 30.2573C6.46644 30.5655 6.63755 30.9473 6.64067 31.4027C6.64378 31.8581 6.47111 32.2378 6.12267 32.5418C5.77422 32.8459 5.34722 32.9986 4.84167 33M13.9977 33C13.4874 33 13.0612 32.8466 12.719 32.5398C12.3768 32.2315 12.2057 31.8497 12.2057 31.3944C12.2057 30.939 12.3776 30.5593 12.7213 30.2552C13.0651 29.9512 13.4929 29.7984 14.0047 29.797C14.5164 29.7957 14.9419 29.9491 15.281 30.2573C15.6201 30.5655 15.7912 30.9473 15.7943 31.4027C15.7974 31.8581 15.6256 32.2378 15.2787 32.5418C14.9318 32.8459 14.5063 32.9986 13.9977 33ZM23.1513 33C22.6411 33 22.2149 32.8466 21.8727 32.5398C21.5304 32.2315 21.3593 31.8497 21.3593 31.3944C21.3593 30.939 21.532 30.5593 21.8773 30.2552C22.2227 29.9512 22.6497 29.7984 23.1583 29.797C23.667 29.7957 24.0924 29.9491 24.4347 30.2573C24.7769 30.5655 24.948 30.9473 24.948 31.4027C24.948 31.8581 24.7761 32.2378 24.4323 32.5418C24.0886 32.8459 23.6608 32.9986 23.149 33" fill="#414141" fill-opacity="0.5"/>
</svg>
